<?xml version="1.0" encoding="UTF-8"?>
<svg xmlns="http://www.w3.org/2000/svg" xmlns:xlink="http://www.w3.org/1999/xlink" viewBox="0 0 560 400">
  <defs>
    <style>
      .cls-1 {
        fill: #4b4746;
      }

      .cls-2 {
        font-family: Poppins-Regular, Poppins;
        font-size: 14px;
      }

      .cls-2, .cls-3, .cls-4 {
        isolation: isolate;
      }

      .cls-2, .cls-4 {
        fill: #fff;
      }

      .cls-5 {
        fill: #575756;
      }

      .cls-6 {
        fill: #176e72;
      }

      .cls-4 {
        opacity: .5;
      }

      .cls-7 {
        fill: #3a3634;
      }

      .cls-8 {
        stroke-miterlimit: 4;
        stroke-width: 1.98px;
      }

      .cls-8, .cls-9 {
        fill: none;
        stroke: #fff;
      }

      .cls-10 {
        fill: #f5faf8;
      }

      .cls-10, .cls-11 {
        mix-blend-mode: multiply;
      }

      .cls-9 {
        stroke-width: 1.98px;
      }

      .cls-12 {
        fill: #928e8d;
      }

      .cls-13 {
        fill: #201d1a;
      }

      .cls-14 {
        fill: #938f8e;
      }

      .cls-15 {
        fill: url(#linear-gradient);
      }

      .cls-11 {
        fill: #f8fcfb;
      }
    </style>
    <linearGradient id="linear-gradient" x1="156.66" y1="726.31" x2="157.67" y2="725.45" gradientTransform="translate(-50352.77 149022.65) scale(322 -205)" gradientUnits="userSpaceOnUse">
      <stop offset="0" stop-color="#32b5ae"/>
      <stop offset="1" stop-color="#7fcace"/>
    </linearGradient>
  </defs>
  <g class="cls-3">
    <g id="Layer_1" data-name="Layer 1">
      <path class="cls-10" d="m554.44,345.83c-16.59-45.43-58.72-47.23-96.28-103.38-27.01-40.38-7.82-101.85-56.4-154.54-22.09-23.96-106.74-44.43-164.98,18.68C165.24,184.11,18.32,162.4,2.79,280.79c-6.34,48.33,39.93,116.1,97.47,116.1h404.32c47.16,0,58.78-26.65,49.86-51.06Z"/>
      <path class="cls-11" d="m499.25,293.19c0-129.21-152.14-96.96-230.87-206.02C189.66-21.89,134.56-.19,104.17,20.07c-72.81,48.54-12.24,148.53-13.6,184.88-1.36,36.35-61.65,52.75-43.37,131.41,4.76,20.49,28,60.54,56.11,60.54h297.5c69.5,0,98.44-59.99,98.44-103.71Z"/>
      <g id="Design">
        <rect id="Design-2" class="cls-15" x="96.93" y="116.48" width="322" height="205" rx="10" ry="10"/>
        <g id="Group_26835" data-name="Group 26835">
          <rect id="Rectangle_575" data-name="Rectangle 575" class="cls-4" x="119.16" y="139.24" width="42.97" height="34.57" rx="3.95" ry="3.95"/>
          <path id="Vector_301" data-name="Vector 301" class="cls-9" d="m127.85,143.68s5.79-2.39,5.79,3.41-6.44,3.76-6.44,3.76m0,0h-8.05m8.05,0v8.54m0,0h-8.05m8.05,0s8.37,0,7.72,5.46-5.47,4.44-5.47,4.44"/>
          <path id="Vector_302" data-name="Vector 302" class="cls-8" d="m153.15,166.87s-5.96,2.48-6.06-3.28,6.6-3.85,6.6-3.85m0,0l8.34-.15m-8.34.15l-.14-8.47m0,0l8.34-.15m-8.34.15s-8.67.16-8.1-5.28c.05-2.58,2.18-4.64,4.76-4.6.28,0,.56.03.84.09"/>
        </g>
        <g id="_3482_8384_8283" data-name=" 3482 8384 8283" class="cls-3">
          <text class="cls-2" transform="translate(120.16 198.69)"><tspan x="0" y="0">3482 8384 </tspan></text>
          <text class="cls-2" transform="translate(120.16 219.69)"><tspan x="0" y="0">8283</tspan></text>
        </g>
      </g>
      <g>
        <g id="N_18px" data-name="N 18px">
          <path class="cls-6" d="m355.14,152.42h-9.79c-.64,0-1.17.52-1.17,1.17v1.87c0,.64.52,1.17,1.17,1.17h10.96c2.32,0,4.2-1.88,4.2-4.2v-3.61c0-2.32-1.88-4.2-4.2-4.2h-6.76c-.64,0-1.17-.52-1.17-1.17v-1.28c0-.64.52-1.17,1.17-1.17h9.79c.64,0,1.17-.52,1.17-1.17v-1.87c0-.64-.52-1.17-1.17-1.17h-10.96c-2.32,0-4.2,1.88-4.2,4.2v3.61c0,2.32,1.88,4.2,4.2,4.2h6.76c.64,0,1.17.52,1.17,1.17v1.28c0,.64-.52,1.17-1.17,1.17Z"/>
        </g>
        <g id="N_18px-2" data-name="N 18px">
          <path class="cls-6" d="m384.99,152.42h-9.79c-.64,0-1.17.52-1.17,1.17v1.87c0,.64.52,1.17,1.17,1.17h10.96c2.32,0,4.2-1.88,4.2-4.2v-3.61c0-2.32-1.88-4.2-4.2-4.2h-6.76c-.64,0-1.17-.52-1.17-1.17v-1.28c0-.64.52-1.17,1.17-1.17h9.79c.64,0,1.17-.52,1.17-1.17v-1.87c0-.64-.52-1.17-1.17-1.17h-10.96c-2.32,0-4.2,1.88-4.2,4.2v3.61c0,2.32,1.88,4.2,4.2,4.2h6.76c.64,0,1.17.52,1.17,1.17v1.28c0,.64-.52,1.17-1.17,1.17Z"/>
        </g>
        <path id="E" class="cls-6" d="m293.33,148.81c2.32,0,4.2-1.88,4.2-4.2v-3.61c0-2.32-1.88-4.2-4.2-4.2h-7.93c-2.32,0-4.2,1.88-4.2,4.2v11.43c0,2.32,1.88,4.2,4.2,4.2h10.96c.64,0,1.17-.52,1.17-1.17v-1.87c0-.64-.52-1.17-1.17-1.17h-9.79c-.64,0-1.17-.52-1.17-1.17v-2.45h7.93Zm-7.93-6.65c0-.64.52-1.17,1.17-1.17h5.6c.64,0,1.17.52,1.17,1.17v1.28c0,.64-.52,1.17-1.17,1.17h-6.76v-2.45Z"/>
        <path id="E-2" data-name="E" class="cls-6" d="m335.31,148.81c2.32,0,4.2-1.88,4.2-4.2v-3.61c0-2.32-1.88-4.2-4.2-4.2h-7.93c-2.32,0-4.2,1.88-4.2,4.2v11.43c0,2.32,1.88,4.2,4.2,4.2h10.96c.64,0,1.17-.52,1.17-1.17v-1.87c0-.64-.52-1.17-1.17-1.17h-9.79c-.64,0-1.17-.52-1.17-1.17v-2.45h7.93Zm-7.93-6.65c0-.64.52-1.17,1.17-1.17h5.6c.64,0,1.17.52,1.17,1.17v1.28c0,.64-.52,1.17-1.17,1.17h-6.76v-2.45Z"/>
        <path id="E-3" data-name="E" class="cls-6" d="m272.35,156.62v2.33c0,.64-.52,1.17-1.17,1.17h-9.79c-.64,0-1.17.52-1.17,1.17v1.87c0,.64.52,1.17,1.17,1.17h10.96c2.32,0,4.2-1.88,4.2-4.2v-19.12c0-2.32-1.88-4.2-4.2-4.2h-7.93c-2.32,0-4.2,1.88-4.2,4.2v11.43c0,2.32,1.88,4.2,4.2,4.2h7.93Zm-1.17-4.31h-5.6c-.64,0-1.17-.52-1.17-1.17v-8.98c0-.64.52-1.17,1.17-1.17h5.6c.64,0,1.17.52,1.17,1.17v8.98c0,.64-.52,1.17-1.17,1.17Z"/>
        <rect class="cls-6" x="365.16" y="136.8" width="4.2" height="19.82" rx="1.17" ry="1.17"/>
        <g id="_18px" data-name="18px">
          <path class="cls-6" d="m314.32,142.16v13.29c0,.64.52,1.17,1.17,1.17h1.87c.64,0,1.17-.52,1.17-1.17v-14.46c0-2.32-1.88-4.2-4.2-4.2h-7.93c-2.32,0-4.2,1.88-4.2,4.2v14.46c0,.64.52,1.17,1.17,1.17h1.87c.64,0,1.17-.52,1.17-1.17v-13.29c0-.64.52-1.17,1.17-1.17h5.6c.64,0,1.17.52,1.17,1.17Z"/>
        </g>
        <g>
          <path class="cls-6" d="m249.14,140.31c-3.66,1-6.12,4.88-5.36,8.63.07.38.17.78.29,1.13.04.09.15.35.19.45.09.2.21.38.31.58,1.11,1.81,3.24,2.92,5.36,2.79.55-.04,1.12-.14,1.64-.32,1.68-.6,2.91-2.23,3.04-4.01.2-1.85-.75-3.65-2.56-4.29-1.82-.66-3.97.11-4.56,2.07-.69,2.18,1.02,4.29,3.32,3.85-2.6.91-4.73-1.52-4.22-4.07.89-4.39,6.8-4.66,9.11-1.21,1.51,2.21,1.37,5.28-.1,7.47-1.76,2.71-5.31,3.74-8.37,2.99-2.11-.49-4-1.79-5.23-3.59-.54-.83-1-1.77-1.24-2.73-1.62-5.55,1.85-11.63,7.39-13.2,2.33-.59,3.28,2.7.99,3.44h0Z"/>
          <circle class="cls-6" cx="250.75" cy="148.28" r="1.27"/>
        </g>
      </g>
      <g>
        <polygon class="cls-12" points="381.86 268.44 381.86 241.07 359.48 279.22 381.86 268.43 381.86 268.44"/>
        <polygon class="cls-5" points="381.86 268.43 359.48 279.22 359.48 279.23 381.86 291.81 381.86 268.44 381.86 268.43"/>
        <polygon class="cls-1" points="404.47 279.23 404.47 279.23 381.87 241.06 381.86 241.07 381.86 268.44 404.47 279.23"/>
        <polygon class="cls-13" points="404.47 279.23 381.86 268.44 381.86 291.81 381.86 291.82 404.47 279.23"/>
        <polygon class="cls-14" points="359.47 281.42 381.86 311.94 381.86 311.94 381.86 293.71 359.47 281.42"/>
        <polygon class="cls-7" points="381.87 293.71 381.86 293.71 381.86 311.94 404.44 281.37 381.87 293.71"/>
      </g>
    </g>
  </g>
</svg>