<?xml version="1.0" encoding="UTF-8"?>
<svg id="Layer_1" data-name="Layer 1" xmlns="http://www.w3.org/2000/svg" xmlns:xlink="http://www.w3.org/1999/xlink" viewBox="0 0 180 32">
  <defs>
    <style>
      .cls-1 {
        fill: url(#linear-gradient-2);
      }

      .cls-2 {
        fill: url(#linear-gradient);
      }

      .cls-3 {
        fill: #176d71;
      }
    </style>
    <linearGradient id="linear-gradient" x1="2.14" y1="11.53" x2="21.23" y2="11.53" gradientUnits="userSpaceOnUse">
      <stop offset="0" stop-color="#44b8da"/>
      <stop offset=".27" stop-color="#47b8c8"/>
      <stop offset="1" stop-color="#51b89b"/>
    </linearGradient>
    <linearGradient id="linear-gradient-2" x1="13.41" y1="13.35" x2="16.36" y2="13.35" gradientUnits="userSpaceOnUse">
      <stop offset="0" stop-color="#44b8da"/>
      <stop offset="1" stop-color="#51b89b"/>
    </linearGradient>
  </defs>
  <g id="N_18px" data-name="N 18px">
    <path class="cls-3" d="m136.26,18.17h-11.39c-.75,0-1.36.61-1.36,1.36v2.17c0,.75.61,1.36,1.36,1.36h12.75c2.7,0,4.88-2.19,4.88-4.88v-4.2c0-2.7-2.19-4.88-4.88-4.88h-7.86c-.75,0-1.36-.61-1.36-1.36v-1.49c0-.75.61-1.36,1.36-1.36h11.39c.75,0,1.36-.61,1.36-1.36V1.36C142.5.61,141.89,0,141.14,0h-12.75C125.7,0,123.52,2.19,123.52,4.88v4.2c0,2.7,2.19,4.88,4.88,4.88h7.86c.75,0,1.36.61,1.36,1.36v1.49c0,.75-.61,1.36-1.36,1.36Z"/>
  </g>
  <g id="N_18px-2" data-name="N 18px">
    <path class="cls-3" d="m170.97,18.17h-11.39c-.75,0-1.36.61-1.36,1.36v2.17c0,.75.61,1.36,1.36,1.36h12.75c2.7,0,4.88-2.19,4.88-4.88v-4.2c0-2.7-2.19-4.88-4.88-4.88h-7.86c-.75,0-1.36-.61-1.36-1.36v-1.49c0-.75.61-1.36,1.36-1.36h11.39c.75,0,1.36-.61,1.36-1.36V1.36C177.21.61,176.6,0,175.86,0h-12.75C160.41,0,158.23,2.19,158.23,4.88v4.2c0,2.7,2.19,4.88,4.88,4.88h7.86c.75,0,1.36.61,1.36,1.36v1.49c0,.75-.61,1.36-1.36,1.36Z"/>
  </g>
  <path id="E" class="cls-3" d="m64.4,13.97c2.7,0,4.88-2.19,4.88-4.88v-4.2C69.28,2.19,67.09,0,64.4,0h-9.22C52.48,0,50.3,2.19,50.3,4.88v13.29c0,2.7,2.19,4.88,4.88,4.88h12.75c.75,0,1.36-.61,1.36-1.36v-2.17c0-.75-.61-1.36-1.36-1.36h-11.39c-.75,0-1.36-.61-1.36-1.36v-2.85h9.22Zm-9.22-7.73c0-.75.61-1.36,1.36-1.36h6.51c.75,0,1.36.61,1.36,1.36v1.49c0,.75-.61,1.36-1.36,1.36h-7.86v-2.85Z"/>
  <path id="E-2" data-name="E" class="cls-3" d="m113.21,13.97c2.7,0,4.88-2.19,4.88-4.88v-4.2C118.09,2.19,115.91,0,113.21,0h-9.22C101.3,0,99.11,2.19,99.11,4.88v13.29c0,2.7,2.19,4.88,4.88,4.88h12.75c.75,0,1.36-.61,1.36-1.36v-2.17c0-.75-.61-1.36-1.36-1.36h-11.39c-.75,0-1.36-.61-1.36-1.36v-2.85h9.22Zm-9.22-7.73c0-.75.61-1.36,1.36-1.36h6.51c.75,0,1.36.61,1.36,1.36v1.49c0,.75-.61,1.36-1.36,1.36h-7.86v-2.85Z"/>
  <path id="E-3" data-name="E" class="cls-3" d="m39.99,23.05v2.71c0,.75-.61,1.36-1.36,1.36h-11.39c-.75,0-1.36.61-1.36,1.36v2.17c0,.75.61,1.36,1.36,1.36h12.75c2.7,0,4.88-2.19,4.88-4.88V4.88C44.87,2.19,42.69,0,39.99,0h-9.22c-2.7,0-4.88,2.19-4.88,4.88v13.29c0,2.7,2.19,4.88,4.88,4.88h9.22Zm-1.36-5.02h-6.51c-.75,0-1.36-.61-1.36-1.36V6.24c0-.75.61-1.36,1.36-1.36h6.51c.75,0,1.36.61,1.36,1.36v10.44c0,.75-.61,1.36-1.36,1.36Z"/>
  <rect class="cls-3" x="147.92" y="0" width="4.88" height="23.05" rx=".45" ry=".45"/>
  <g id="_18px" data-name="18px">
    <path class="cls-3" d="m88.8,6.24v15.46c0,.75.61,1.36,1.36,1.36h2.17c.75,0,1.36-.61,1.36-1.36V4.88C93.69,2.19,91.5,0,88.8,0h-9.22C76.89,0,74.7,2.19,74.7,4.88v16.81c0,.75.61,1.36,1.36,1.36h2.17c.75,0,1.36-.61,1.36-1.36V6.24c0-.75.61-1.36,1.36-1.36h6.51c.75,0,1.36.61,1.36,1.36Z"/>
  </g>
  <g>
    <path class="cls-2" d="m13.01,4.09c-4.26,1.17-7.11,5.68-6.23,10.03.08.44.2.9.34,1.32.05.11.18.41.22.52.1.23.24.44.36.67,1.29,2.1,3.77,3.39,6.23,3.25.65-.05,1.3-.16,1.91-.37,1.95-.7,3.39-2.6,3.54-4.67.23-2.15-.88-4.24-2.98-4.98-2.12-.77-4.61.13-5.31,2.41-.81,2.53,1.18,4.99,3.86,4.48-3.03,1.06-5.5-1.77-4.91-4.73,1.03-5.1,7.91-5.41,10.59-1.4,1.76,2.57,1.59,6.14-.12,8.68-2.05,3.16-6.18,4.35-9.73,3.48-2.46-.57-4.65-2.08-6.08-4.17-.63-.96-1.16-2.06-1.44-3.17C1.37,8.98,5.41,1.91,11.85.08c2.71-.69,3.81,3.14,1.15,4h0Z"/>
    <circle class="cls-1" cx="14.88" cy="13.35" r="1.48"/>
  </g>
</svg>